# xmcd CD database file
# Copyright (C) 1993-1998 Ti Kan
# 
# Track frame offsets:
#     150
#     12390
#     26328
#     37728
#     49565
#     62913
#     74270
#     86220
#     98855
#     110900
#     122948
#     134443
#     147078
#     159285
#     171315
#     183515
# 
# Disc length: 2643 seconds
# 
# Revision: 1
# Processed by: cddbd v1.4b41PL1 Copyright (c) Steve Scherf et al.
# Submitted via: DiscPlay 4.0.4
# 
DISCID=df0a5110
DTITLE=Sam Collins - Jailhouse Blues
DYEAR=1900
DGENRE=
TTITLE0=Devil In The Lion's Den
TTITLE1=Slow Mama Slow
TTITLE2=The Jailhouse Blues
TTITLE3=Riverside Blues
TTITLE4=New Salty Dog
TTITLE5=Yellow Dog Blues
TTITLE6=Pork Chop Blues
TTITLE7=Dark Cloudy Blues
TTITLE8=Hesitation Blues
TTITLE9=It Won't Be Long
TTITLE10=Do That Thing
TTITLE11=I Want To Be Like Jesus In My Heart
TTITLE12=Loving Lady Blues
TTITLE13=Midnight Special Blues
TTITLE14=Lead Me All The Way
TTITLE15=Graveyard Digger's Blues
EXTD=
EXTT0=
EXTT1=
EXTT2=
EXTT3=
EXTT4=
EXTT5=
EXTT6=
EXTT7=
EXTT8=
EXTT9=
EXTT10=
EXTT11=
EXTT12=
EXTT13=
EXTT14=
EXTT15=
PLAYORDER=
